<svg width="105" height="87" viewBox="0 0 105 87" xmlns="http://www.w3.org/2000/svg" xmlns:xlink="http://www.w3.org/1999/xlink"><title>Page 1</title><defs><path id="a" d="M0 .916h104.994V87H0"/><path id="c" d="M0 .916h104.994V87H0"/><path id="e" d="M0 .916h104.994V87H0V.916z"/><path id="g" d="M0 .916h104.994V87H0V.916z"/><path id="i" d="M0 .916h104.994V87H0"/></defs><g fill="none" fill-rule="evenodd"><mask id="b" fill="#fff"><use xlink:href="#a"/></mask><path d="M62.6579 3.7383v75.077h4.234v3.669l-2.117 1.129v3.387h16.793v-4.516l-2.822-.565.847-8.467s23.99-20.886 13.547-42.054c0 0 2.258-25.12-30.482-27.66" fill="#F8E8E5" mask="url(#b)"/><mask id="d" fill="#fff"><use xlink:href="#c"/></mask><path d="M62.6579 3.7383v75.077h-4.234v3.669l2.117 1.129v3.387h-16.793v-4.516l2.822-.565-.847-8.467s-23.99-20.886-13.547-42.054c0 0-2.258-25.12 30.482-27.66" fill="#D6C3C2" mask="url(#d)"/><path d="M73.6654 37.8897s-.282-10.725 12.136-9.879c0 0 3.105 12.137-12.136 9.879M51.6505 37.8897s.282-10.725-12.136-9.879c0 0-3.105 12.137 12.136 9.879" fill="#5FA586"/><path d="M50.0291 32.5271c0 .935-.879 1.693-1.964 1.693s-1.965-.758-1.965-1.693.88-1.693 1.965-1.693 1.964.758 1.964 1.693M79.8635 32.5271c0 .935-.879 1.693-1.964 1.693s-1.965-.758-1.965-1.693.88-1.693 1.965-1.693 1.964.758 1.964 1.693" fill="#FEFEFE"/><mask id="f" fill="#fff"><use xlink:href="#e"/></mask><path d="M79.2156 7.9986s7.433-7.083 20.416-7.083c0 0 3.749 22.485-6.593 27.048l-13.823-19.965z" fill="#736A67" mask="url(#f)"/><mask id="h" fill="#fff"><use xlink:href="#g"/></mask><path d="M48.0647 7.9986s-7.433-7.083-20.416-7.083c0 0-3.749 22.485 6.593 27.048l13.823-19.965z" fill="#736A67" mask="url(#h)"/><path d="M83.9563 11.0563s7.303-6.475 11.817-4.213c0 0 1.74 13.248-3.41 17.349 0 0-2.368-9.448-8.407-13.136M42.4886 10.2179s-7.303-6.475-11.817-4.213c0 0-1.74 13.248 3.41 17.349 0 0 2.368-9.448 8.407-13.136" fill="#DC677F"/><path d="M53.909 41.4178h18.064s-2.258 5.645-9.032 7.903c0 0-8.75-4.234-9.032-7.903" fill="#3B3937"/><path d="M81.8505 45.3692s10.443-4.939 21.45-3.951" stroke="#3B3937"/><g><mask id="j" fill="#fff"><use xlink:href="#i"/></mask><path d="M83.9563 49.3206h21.038" stroke="#3B3937" mask="url(#j)"/></g><path d="M88.0598 55.1065s10.074 0 12.234 3.387M43.4654 45.3692s-10.443-4.939-21.45-3.951M41.3596 49.3206h-21.038M37.2561 55.1065s-10.074 0-12.234 3.387" stroke="#3B3937"/><path d="M62.9407 67.243s19.712-.847 23.121-8.75c0 0-1.106 12.137-23.121 12.984 0 0-15.784.282-20.452-12.984 0 0 17.912 12.701 20.452 8.75" fill="#D6C3C2"/><path d="M40.2162 67.6441s-18.201 15.687-25.822-9.151c0 0-1.129-8.185 5.927-11.572 0 0 10.53-12.983 4.701-20.886 0 0-8.37-14.394-20.506-5.644 0 0-10.161 10.725 0 18.91 0 0 9.596 1.361 5.362-6.234 0 0-6.806-7.232 2.823-8.875 0 0 11.289 3.815 4.233 13.978 0 0-9.314 12.138-9.031 16.936 0 0-2.258 12.834 4.515 17.425 0 0 10.726 11.646 22.015 6.284 0 0 11.855-1.976 11.29-5.363l-5.507-5.808z" fill="#6C6D6A"/></g></svg>