<svg width="115" height="87" viewBox="0 0 115 87" xmlns="http://www.w3.org/2000/svg" xmlns:xlink="http://www.w3.org/1999/xlink"><title>Page 1</title><defs><path id="a" d="M0 .916h114.68V87H0"/><path id="c" d="M0 .916h114.68V87H0"/><path id="e" d="M0 .916h114.68V87H0V.916z"/><path id="g" d="M0 .916h114.68V87H0V.916z"/></defs><g fill="none" fill-rule="evenodd"><path d="M57.943 51.68S54.486 75.458 32.446 61.7c0 0-6.22-5.438-3.112-12.622 0 0-.562-16.707-10.145-18.852 0 0-15.758-5.38-19.185 9.183 0 0-.64 14.76 12.4 14.277 0 0 8.137-5.264-.04-8.223 0 0-9.88-.998-3.687-8.55 0 0 11.025-4.523 12.36 7.777 0 0 .927 15.273 4.286 18.71 0 0 6.71 11.17 14.835 10.196 0 0 15.733 1.76 20.74-9.69 0 0 7.656-9.264 5.01-11.45l-7.967-.776z" fill="#6C6D6A"/><mask id="b" fill="#fff"><use xlink:href="#a"/></mask><path d="M72.342 3.738v75.077h4.234v3.67l-2.117 1.128V87H91.25v-4.516l-2.822-.565.847-8.468s23.99-20.886 13.547-42.054c0 0 2.258-25.12-30.482-27.66" fill="#F8E8E5" mask="url(#b)"/><mask id="d" fill="#fff"><use xlink:href="#c"/></mask><path d="M72.342 3.738v75.077h-4.234v3.67l2.117 1.128V87H53.432v-4.516l2.822-.565-.847-8.468S31.417 52.566 41.86 31.398c0 0-2.258-25.12 30.482-27.66" fill="#D6C3C2" mask="url(#d)"/><path d="M83.35 37.89s-.282-10.725 12.136-9.88c0 0 3.105 12.138-12.136 9.88M61.335 37.89s.282-10.725-12.136-9.88c0 0-3.106 12.138 12.135 9.88" fill="#5FA586"/><path d="M59.713 32.527c0 .935-.88 1.693-1.964 1.693-1.086 0-1.966-.758-1.966-1.693s.88-1.693 1.965-1.693c1.084 0 1.963.758 1.963 1.693M89.548 32.527c0 .935-.88 1.693-1.964 1.693-1.085 0-1.965-.758-1.965-1.693s.88-1.693 1.964-1.693c1.085 0 1.964.758 1.964 1.693" fill="#FEFEFE"/><mask id="f" fill="#fff"><use xlink:href="#e"/></mask><path d="M88.9 8S96.333.915 109.316.915c0 0 3.75 22.485-6.593 27.048L88.9 8z" fill="#736A67" mask="url(#f)"/><mask id="h" fill="#fff"><use xlink:href="#g"/></mask><path d="M57.75 8S50.315.915 37.332.915c0 0-3.75 22.485 6.593 27.048L57.75 8z" fill="#736A67" mask="url(#h)"/><path d="M93.64 11.056s7.304-6.475 11.818-4.213c0 0 1.74 13.248-3.41 17.35 0 0-2.368-9.45-8.407-13.137M52.173 10.218S44.87 3.743 40.356 6.005c0 0-1.74 13.248 3.41 17.35 0 0 2.368-9.45 8.407-13.137" fill="#DC677F"/><path d="M63.593 41.418h18.064s-2.258 5.645-9.032 7.903c0 0-8.75-4.233-9.032-7.902" fill="#3B3937"/><path d="M91.535 45.37s10.443-4.94 21.45-3.952M93.64 49.32h21.04M97.744 55.106s10.074 0 12.234 3.387M53.15 45.37s-10.443-4.94-21.45-3.952M51.044 49.32H30.006M46.94 55.106s-10.074 0-12.234 3.387" stroke="#3B3937"/><path d="M72.625 67.243s19.712-.847 23.12-8.75c0 0-1.105 12.137-23.12 12.984 0 0-15.784.282-20.452-12.984 0 0 17.912 12.7 20.452 8.75" fill="#D6C3C2"/></g></svg>