<svg width="109" height="99" viewBox="0 0 109 99" xmlns="http://www.w3.org/2000/svg" xmlns:xlink="http://www.w3.org/1999/xlink"><title>Page 1</title><defs><path id="a" d="M0 .544h108.786V99H0"/><path id="c" d="M0 .544h108.786V99H0"/></defs><g fill="none" fill-rule="evenodd"><path d="M54.7505 55.2354V.5524s-19.102-.516-29.13 24.516c0 0-5.979 14.356 1.466 32.787 0 0 3.685 2.771 11.963.846l15.701-3.466z" fill="#8A7E6E"/><path d="M53.8827 55.1529l.248-54.608s18.862-.429 28.649 24.613c0 0 5.838 14.363-1.596 32.736 0 0-3.651 2.751-11.815.791l-15.486-3.532z" fill="#8E8271"/><mask id="b" fill="#fff"><use xlink:href="#a"/></mask><path d="M100.0525 8.4832c-11.079-12.589-26.437 1.763-26.437 1.763 1.692 1.909 3.144 3.844 4.394 5.784.21-.741 1.458-2.662 8.718-3.267 0 0 22.66 12.086 11.834 43.811 0 0-6.799 2.77-14.1-5.539 0 0 .425-4.033.338-9.49-.432 9.555-3.631 16.288-3.631 16.288 14.855 12.337 24.927 2.77 24.927 2.77 8.561-34.747-6.043-52.12-6.043-52.12" fill="#817664" mask="url(#b)"/><path d="M83.3204 27.8782c-.903-3.971-2.314-7.719-4.496-10.535 2.112 3.543 3.555 7.092 4.496 10.535" fill="#817664"/><path d="M84.4612 51.0349c7.302 8.309 14.1 5.539 14.1 5.539 10.827-31.725-11.834-43.81-11.834-43.81-7.26.605-8.508 2.525-8.718 3.266-.052.184-.041.297-.041.297.299.323.583.663.857 1.016 2.181 2.816 3.592 6.564 4.495 10.535 1.052 4.625 1.413 9.55 1.479 13.667.087 5.458-.338 9.49-.338 9.49" fill="#DBD6C8"/><mask id="d" fill="#fff"><use xlink:href="#c"/></mask><path d="M8.8759 8.4501c11.136-12.539 26.429 1.883 26.429 1.883-1.701 1.902-3.162 3.83-4.421 5.764-.206-.742-1.445-2.668-8.702-3.306 0 0-22.716 11.982-12.033 43.756 0 0 6.785 2.801 14.125-5.475 0 0-.407-4.034-.295-9.492.388 9.558 3.556 16.305 3.556 16.305-14.911 12.27-24.939 2.657-24.939 2.657-8.402-34.785 6.28-52.092 6.28-52.092" fill="#817664" mask="url(#d)"/><path d="M25.5196 27.9208c.921-3.967 2.349-7.708 4.543-10.514-2.127 3.533-3.586 7.075-4.543 10.514" fill="#817664"/><path d="M24.2736 51.0722c-7.339 8.276-14.125 5.475-14.125 5.475-10.682-31.774 12.033-43.756 12.033-43.756 7.257.638 8.496 2.564 8.703 3.306.051.184.039.297.039.297-.299.321-.585.66-.861 1.012-2.194 2.806-3.622 6.547-4.543 10.515-1.073 4.62-1.457 9.543-1.541 13.659-.111 5.458.295 9.492.295 9.492" fill="#DBD6C8"/><path d="M46.4667 30.7435c0 4.462-2.621 8.08-5.854 8.08s-5.854-3.618-5.854-8.08 2.621-8.08 5.854-8.08 5.854 3.618 5.854 8.08" fill="#B1A797"/><path d="M37.4805 33.8757c0-1.73 1.402-3.132 3.132-3.132 1.73 0 3.132 1.402 3.132 3.132 0 1.73-1.402 3.132-3.132 3.132-1.73 0-3.132-1.402-3.132-3.132" fill="#141720"/><path d="M38.2795 34.8905c0-.832.675-1.507 1.507-1.507.833 0 1.508.675 1.508 1.507 0 .832-.675 1.507-1.508 1.507-.832 0-1.507-.675-1.507-1.507" fill="#FAFAEC"/><path d="M61.3921 30.624c-.165 4.459 2.32 8.171 5.551 8.291 3.231.12 5.984-3.398 6.149-7.857.165-4.46-2.32-8.172-5.551-8.291-3.231-.12-5.984 3.398-6.149 7.857" fill="#B1A797"/><path d="M70.2561 34.087c.064-1.729-1.285-3.182-3.014-3.246-1.729-.064-3.182 1.285-3.246 3.014-.064 1.729 1.285 3.182 3.014 3.246 1.729.064 3.182-1.285 3.246-3.014" fill="#141720"/><path d="M69.42 35.0715c.031-.832-.619-1.531-1.45-1.562-.832-.031-1.532.618-1.563 1.45-.03.832.619 1.532 1.451 1.562.832.031 1.531-.618 1.562-1.45" fill="#FAFAEC"/><path d="M78.0448 58.8858s.412 13.85-4.309 17.438v19.262s2.644 3.21 0 3.399h-13.132s-1.989-.944 0-2.644v-11.708h-6.633v-29.412s21.321 5.689 24.074 3.665" fill="#685E52"/><path d="M30.7053 58.7765s-.475 13.848 4.23 17.458l-.088 19.261s-2.658 3.198-.015 3.399l13.131.06s1.994-.935.012-2.644l.053-11.708 6.634.03.134-29.412s-21.348 5.592-24.091 3.556" fill="#5E544A"/><path d="M69.3683 58.6844l-6.183 3.114s-3.588 30.026-48.154 34.558l-5.287 1.511s-3.588 1.133-1.322-3.211c0 0 3.777-1.888 2.455-3.965 0 0-2.828-1.511-3.586-3.777 0 0-1.324-3.022 2.264-2.833 0 0 23.255 5.099 31.739-22.849l-2.244-2.531 15.77-3.466 14.548 3.449z" fill="#98948F"/><path d="M48.6447 97.8217c0 .651-3.253 1.178-7.267 1.178-4.013 0-7.266-.527-7.266-1.178 0-.651 3.253-1.178 7.266-1.178 4.014 0 7.267.527 7.267 1.178M74.5786 97.7913c0 .651-3.253 1.178-7.267 1.178-4.013 0-7.266-.527-7.266-1.178 0-.651 3.253-1.178 7.266-1.178 4.014 0 7.267.527 7.267 1.178" fill="#BAADA0"/></g></svg>