<svg width="53" height="105" viewBox="0 0 53 105" xmlns="http://www.w3.org/2000/svg" xmlns:xlink="http://www.w3.org/1999/xlink"><title>Page 1</title><defs><path id="a" d="M0 .383h52.245V105H0"/><path id="c" d="M0 .383h52.245V105H0"/></defs><g fill="none" fill-rule="evenodd"><mask id="b" fill="#fff"><use xlink:href="#a"/></mask><path d="M33.3615 11.7136s8.875-7.554 18.884 0c0 0-5.288 7.365-15.674 6.232 0 0-1.322-3.211-3.21-6.232" fill="#F8CF3D" mask="url(#b)"/><path d="M35.187 13.2101s7.137-2.643 10.827-.804c0 0-2.136 3.815-10.195 3.859l-.632-3.055z" fill="#955615"/><mask id="d" fill="#fff"><use xlink:href="#c"/></mask><path d="M18.8839 11.7136s-8.875-7.554-18.884 0c0 0 5.288 7.365 15.674 6.232 0 0 1.322-3.211 3.21-6.232" fill="#F8CF3D" mask="url(#d)"/><path d="M17.0584 13.2101s-7.137-2.643-10.827-.804c0 0 2.136 3.815 10.195 3.859l.632-3.055z" fill="#955615"/><path d="M29.0608 9.3344l1.351-4.784s-3.715-2.881 1.688-4.167c0 0 4.784 2.058.282 4.733l-1.745 5.401-1.857-.531.281-.652zM22.8699 9.3344l-1.351-4.784s3.715-2.881-1.688-4.167c0 0-4.784 2.058-.282 4.733l1.745 5.401 1.857-.531-.281-.652z" fill="#F8CF3D"/><path d="M25.9653 7.584v25.682s9.064.378 13.596 4.406c0 0 2.518-26.941-13.596-30.088" fill="#F7E28F"/><path d="M25.9653 7.584v25.682s-9.064.378-13.596 4.406c0 0-2.518-26.941 13.596-30.088" fill="#F6D052"/><path d="M24.6197 20.6138c0 1.585-1.229 2.871-2.746 2.871-1.516 0-2.746-1.286-2.746-2.871s1.23-2.871 2.746-2.871c1.517 0 2.746 1.286 2.746 2.871" fill="#F7F9EA"/><path d="M22.4247 21.621c0 .556-.451 1.007-1.007 1.007-.556 0-1.007-.451-1.007-1.007 0-.556.451-1.007 1.007-1.007.556 0 1.007.451 1.007 1.007" fill="#898072"/><path d="M34.1169 20.6138c0 1.585-1.229 2.871-2.746 2.871-1.516 0-2.746-1.286-2.746-2.871s1.23-2.871 2.746-2.871c1.517 0 2.746 1.286 2.746 2.871" fill="#F7F9EA"/><path d="M31.9219 21.621c0 .556-.451 1.007-1.007 1.007-.556 0-1.007-.451-1.007-1.007 0-.556.451-1.007 1.007-1.007.556 0 1.007.451 1.007 1.007" fill="#898072"/><path d="M26.2843 47.3968v50.05h3.175v7.553h7.679v-10.386s8.452-20.269-4.303-24.801v-22.416h-6.551z" fill="#F3E0A4"/><path d="M26.2843 47.3968v50.05h-3.175v7.553h-7.679v-10.386s-8.452-20.269 4.303-24.801v-22.416h6.551z" fill="#F3D541"/><path d="M20.5532 47.3638s-9.206-4.483-8.042-9.858c0 0 11.425-9.732 27.193 0 0 0-.094 6.711-4.878 9.103 0 0-5.759 2.895-14.273.755" fill="#F4B260"/><path d="M24.9869 37.2819c.173 1.189-.037 2.203-.468 2.266-.432.063-.922-.85-1.095-2.038-.173-1.189.036-2.203.468-2.266.432-.063.922.849 1.095 2.038M27.8173 37.2819c.173 1.189-.037 2.203-.468 2.266-.432.063-.922-.85-1.095-2.038-.173-1.189.036-2.203.468-2.266.432-.063.922.849 1.095 2.038" fill="#39190E"/><path d="M22.1972 81.0844c.2.293 1.336 1.45.373 2.11-.403.276-1.223-.222-1.832-1.111s-.776-1.834-.373-2.109c.403-.276 1.223.221 1.832 1.11M20.2511 73.8002c-1.07.129-1.985-.16-2.043-.645-.058-.485.762-.982 1.832-1.111 1.07-.128 1.984.16 2.043.645.058.485-.762.982-1.832 1.111M16.3705 86.0336c-1.07.129-1.985-.16-2.043-.645-.058-.485.762-.982 1.832-1.111 1.07-.128 1.984.16 2.043.645.058.485-.762.982-1.832 1.111M20.837 92.419c-.672.843-1.526 1.279-1.908.975-.382-.304-.147-1.234.525-2.077s1.526-1.279 1.908-.975c.382.304.147 1.234-.525 2.077M24.3347 86.4296c.425.99.407 1.949-.042 2.142-.449.193-1.157-.454-1.583-1.444-.425-.99-.406-1.949.042-2.142.449-.193 1.158.454 1.583 1.444" fill="#F4B260"/><path d="M15.4303 105s3.911-3.714 7.679 0M29.2442 105s3.911-3.714 7.679 0" fill="#332112"/><path d="M24.1877 46.0823h4.93s1.737 12.539-1.062 14.944c0 0-4.262 1.203-3.868-14.944" fill="#E8AACD"/></g></svg>