<svg width="93" height="92" viewBox="0 0 93 92" xmlns="http://www.w3.org/2000/svg" xmlns:xlink="http://www.w3.org/1999/xlink"><title>Page 1</title><defs><path id="a" d="M0 .575h92.828V92H0V.575z"/></defs><g fill="none" fill-rule="evenodd"><mask id="b" fill="#fff"><use xlink:href="#a"/></mask><path d="M75.0608 22.3185s25.193 20.46 15.581 39.425c0 0-1.415 2.686-3.173-3.355l-7.945-5.61-4.463-30.46z" fill="#432A13" mask="url(#b)"/><path d="M17.7676 22.3185s-25.193 20.46-15.581 39.425c0 0 1.415 2.686 3.173-3.355l7.945-5.61 4.463-30.46z" fill="#432A13"/><path d="M46.8709 4.5676v82.334h6.798v5.098h13.219v-12.652s19.261-18.695 11.519-50.231c0 0-1.133-10.953-9.064-16.24 0 0 2.832-7.176 7.553-11.33 0 0-7.931-4.155-17.562 4.721 0 0-3.965-1.133-12.463-1.7" fill="#8E5320"/><path d="M46.8709 4.5676v82.334h-6.798v5.098h-13.219v-12.652s-19.261-18.695-11.519-50.231c0 0 1.133-10.953 9.064-16.24 0 0-2.832-7.176-7.553-11.33 0 0 7.931-4.155 17.562 4.721 0 0 3.965-1.133 12.463-1.7" fill="#6E3C13"/><path d="M46.4142 24.7734c0 6.57-4.692 11.897-10.481 11.897-5.788 0-10.48-5.327-10.48-11.897s4.692-11.897 10.48-11.897c5.789 0 10.481 5.327 10.481 11.897M68.5873 24.7734c0 6.57-4.692 11.897-10.481 11.897-5.788 0-10.48-5.327-10.48-11.897s4.692-11.897 10.48-11.897c5.789 0 10.481 5.327 10.481 11.897" fill="#FEFEFE"/><path d="M42.8847 25.3158c0 3.538-2.868 6.407-6.407 6.407-3.538 0-6.406-2.869-6.406-6.407s2.868-6.407 6.406-6.407c3.539 0 6.407 2.869 6.407 6.407M63.6641 25.3158c0 3.538-2.868 6.407-6.407 6.407-3.538 0-6.406-2.869-6.406-6.407s2.868-6.407 6.406-6.407c3.539 0 6.407 2.869 6.407 6.407" fill="#9AD3D9"/><path d="M40.192 25.3158c0 2.225-1.663 4.029-3.714 4.029s-3.714-1.804-3.714-4.029c0-2.225 1.663-4.029 3.714-4.029s3.714 1.804 3.714 4.029M60.9714 25.3158c0 2.225-1.663 4.029-3.714 4.029s-3.714-1.804-3.714-4.029c0-2.225 1.663-4.029 3.714-4.029s3.714 1.804 3.714 4.029" fill="#46372D"/><path d="M35.5685 23.4515c0 .626-.507 1.133-1.133 1.133s-1.133-.507-1.133-1.133.507-1.133 1.133-1.133 1.133.507 1.133 1.133M56.3895 23.4515c0 .626-.507 1.133-1.133 1.133s-1.133-.507-1.133-1.133.507-1.133 1.133-1.133 1.133.507 1.133 1.133" fill="#FEFEFE"/><path d="M42.2443 36.6702s2.486 6.326 4.17 7.27c0 0 6.783-4.626 3.856-7.837l-3.399-2.927-4.627 3.494z" fill="#F3C506"/><path d="M46.4142 84.1317s-17.168.684-17.672-13.569c0 0 5.675-19.415 17.881-17.652 0 0 11.326-2.626 17.747 15.556 0 0 4.122 15.665-17.956 15.665" fill="#EDD39F"/><path d="M32.7643 65.2478s-.384 3.021 3.714 3.21c0 0 3.972-1.573 2.839-3.21 0 0 4.082 6.546 7.391 0 0 0 3.463 6.546 7.415 0 0 0 4.204 6.546 7.477 0M36.1961 71.282s-.384 3.021 3.714 3.21c0 0 3.972-1.573 2.839-3.21 0 0 4.082 6.546 7.391 0 0 0 3.463 6.546 7.415 0M39.9036 76.4403s-.384 3.021 3.714 3.21c0 0 3.972-1.573 2.839-3.21 0 0 4.082 6.546 7.391 0" stroke="#200C09"/><path d="M40.0727 90.1116c0 1.043-2.959 1.888-6.609 1.888-3.651 0-6.61-.845-6.61-1.888s2.959-1.888 6.61-1.888c3.65 0 6.609.845 6.609 1.888M67.0665 90.1116c0 1.043-2.959 1.888-6.609 1.888-3.651 0-6.61-.845-6.61-1.888s2.959-1.888 6.61-1.888c3.65 0 6.609.845 6.609 1.888" fill="#F8BD32"/></g></svg>