<svg width="76" height="92" viewBox="0 0 76 92" xmlns="http://www.w3.org/2000/svg"><title>Page 1</title><g fill="none" fill-rule="evenodd"><path d="M6.4802 27.9033s-15.231 28.658 1.009 42.38c0 0 2.35 1.922 1.615-4.326M69.178 27.9033s15.231 28.658-1.009 42.38c0 0-2.35 1.922-1.615-4.326" fill="#432A13"/><path d="M37.8291 4.5676v82.334h6.798v5.098h13.219v-12.652s19.261-18.695 11.519-50.231c0 0-1.133-10.953-9.064-16.24 0 0 2.832-7.176 7.553-11.33 0 0-7.931-4.155-17.562 4.721 0 0-3.965-1.133-12.463-1.7" fill="#8E5320"/><path d="M37.8291 4.5676v82.334h-6.798v5.098h-13.219v-12.652s-19.261-18.695-11.519-50.231c0 0 1.133-10.953 9.064-16.24 0 0-2.832-7.176-7.553-11.33 0 0 7.931-4.155 17.562 4.721 0 0 3.965-1.133 12.463-1.7" fill="#6E3C13"/><path d="M37.3724 24.7734c0 6.57-4.692 11.897-10.481 11.897-5.788 0-10.48-5.327-10.48-11.897s4.692-11.897 10.48-11.897c5.789 0 10.481 5.327 10.481 11.897M59.5456 24.7734c0 6.57-4.692 11.897-10.481 11.897-5.788 0-10.48-5.327-10.48-11.897s4.692-11.897 10.48-11.897c5.789 0 10.481 5.327 10.481 11.897" fill="#FEFEFE"/><path d="M33.8429 25.3158c0 3.538-2.868 6.407-6.407 6.407-3.538 0-6.406-2.869-6.406-6.407s2.868-6.407 6.406-6.407c3.539 0 6.407 2.869 6.407 6.407M54.6224 25.3158c0 3.538-2.868 6.407-6.407 6.407-3.538 0-6.406-2.869-6.406-6.407s2.868-6.407 6.406-6.407c3.539 0 6.407 2.869 6.407 6.407" fill="#9AD3D9"/><path d="M31.1502 25.3158c0 2.225-1.663 4.029-3.714 4.029s-3.714-1.804-3.714-4.029c0-2.225 1.663-4.029 3.714-4.029s3.714 1.804 3.714 4.029M51.9296 25.3158c0 2.225-1.663 4.029-3.714 4.029s-3.714-1.804-3.714-4.029c0-2.225 1.663-4.029 3.714-4.029s3.714 1.804 3.714 4.029" fill="#46372D"/><path d="M26.5267 23.4515c0 .626-.507 1.133-1.133 1.133s-1.133-.507-1.133-1.133.507-1.133 1.133-1.133 1.133.507 1.133 1.133M47.3477 23.4515c0 .626-.507 1.133-1.133 1.133s-1.133-.507-1.133-1.133.507-1.133 1.133-1.133 1.133.507 1.133 1.133" fill="#FEFEFE"/><path d="M33.2026 36.6702s2.486 6.326 4.17 7.27c0 0 6.783-4.626 3.856-7.837l-3.399-2.927-4.627 3.494z" fill="#F3C506"/><path d="M37.3724 84.1317s-17.168.684-17.672-13.569c0 0 5.675-19.415 17.882-17.652 0 0 11.325-2.626 17.746 15.556 0 0 4.122 15.665-17.956 15.665" fill="#EDD39F"/><path d="M23.7225 65.2478s-.384 3.021 3.714 3.21c0 0 3.972-1.573 2.839-3.21 0 0 4.082 6.546 7.391 0 0 0 3.463 6.546 7.415 0 0 0 4.204 6.546 7.477 0M27.1543 71.282s-.384 3.021 3.714 3.21c0 0 3.972-1.573 2.839-3.21 0 0 4.082 6.546 7.391 0 0 0 3.463 6.546 7.415 0M30.8618 76.4403s-.384 3.021 3.714 3.21c0 0 3.972-1.573 2.839-3.21 0 0 4.082 6.546 7.391 0" stroke="#200C09"/><path d="M31.0309 90.1116c0 1.043-2.959 1.888-6.609 1.888-3.651 0-6.61-.845-6.61-1.888s2.959-1.888 6.61-1.888c3.65 0 6.609.845 6.609 1.888M58.0247 90.1116c0 1.043-2.959 1.888-6.609 1.888-3.651 0-6.61-.845-6.61-1.888s2.959-1.888 6.61-1.888c3.65 0 6.609.845 6.609 1.888" fill="#F8BD32"/></g></svg>