<svg width="69" height="94" viewBox="0 0 69 94" xmlns="http://www.w3.org/2000/svg" xmlns:xlink="http://www.w3.org/1999/xlink"><title>Page 1</title><defs><path id="a" d="M0 .539h68.883V94H0"/></defs><g fill="none" fill-rule="evenodd"><mask id="b" fill="#fff"><use xlink:href="#a"/></mask><path d="M44.4068 93.8864c-2.561-.57-4.19-3.131-3.62-5.691l18.671-83.923c.57-2.56 3.131-4.189 5.691-3.62 2.561.57 4.19 3.131 3.62 5.692l-18.671 83.922c-.569 2.561-3.13 4.19-5.691 3.62" fill="#ED8A1F" mask="url(#b)"/><path d="M45.0025 11.5148h-30.232l-6.462 5.77v18.462l8.539 9.231h26.77l7.847-10.154v-13.205l-6.462-10.104z" fill="#D0CDC7"/><path d="M8.3082 7.3607s6.462 5.077 6.462 6.231c0 0 .231 5.207-6.462 8.027 0 0-7.385-1.847-8.308-7.129 0 0 2.308-5.052 8.308-7.129M52.3871 7.3607s6.462 5.077 6.462 6.231c0 0 .231 5.207-6.462 8.027 0 0-7.385-1.847-8.308-7.129 0 0 2.308-5.052 8.308-7.129" fill="#63604C"/><path d="M25.2322 36.4393v-8.193s4.462-6.654 8.616 0v8.193s-3.077 4.769-8.616 0" fill="#696557"/><path d="M14.771 42.7338v26.707s7.597 13.638 28.722 6.589l.125-31.052-27.694-2.244" fill="#D0CDC7"/><path d="M54.778 42.7338s-1.083-6.937-2.775 0l-8.385 2.244H17.847s-4.615 11.001 3.693 12.693l28.617-7.538 9.043-.777s2.958-5.405-.35-6.622h-4.072z" fill="#6F6B5C"/><path d="M54.778 69.2318s6.149-1.868 3.071 3.979c0 0-4.461 5.846-6.385 5.846 0 0-6.846 1.231-5.461-5.846 0 0 .711-1.979-1.337-2.451 0 0-.279 7.169-14.78 7.195 0 0-14.039-8.591 5.808-20.284 0 0 17.09-9.342 19.084 11.561" fill="#E1E0DD"/></g></svg>