<svg width="69" height="93" viewBox="0 0 69 93" xmlns="http://www.w3.org/2000/svg" xmlns:xlink="http://www.w3.org/1999/xlink"><title>Page 1</title><defs><path id="a" d="M0 .974h68.562V94H0"/></defs><g fill="none" fill-rule="evenodd"><g transform="translate(0 -1)"><mask id="b" fill="#fff"><use xlink:href="#a"/></mask><path d="M44.2001 93.8869c-2.549-.567-4.17-3.116-3.603-5.665l18.584-83.532c.567-2.548 3.116-4.17 5.665-3.603 2.549.567 4.17 3.117 3.603 5.665l-18.584 83.532c-.567 2.549-3.116 4.17-5.665 3.603" fill="#ED8A1F" mask="url(#b)"/></g><path d="M44.793 10.8987H14.701l-6.432 5.743v18.376l8.5 9.189h26.646l7.81-10.107v-13.144l-6.432-10.057z" fill="#D0CDC7"/><path d="M8.2695 6.764s6.432 5.054 6.432 6.202c0 0 .23 5.182-6.432 7.989 0 0-7.351-1.837-8.269-7.095 0 0 2.297-5.029 8.269-7.096M52.1432 6.764s6.432 5.054 6.432 6.202c0 0 .23 5.182-6.432 7.989 0 0-7.351-1.837-8.269-7.095 0 0 2.297-5.029 8.269-7.096" fill="#63604C"/><path d="M25.1147 35.7072v-8.155s4.441-6.623 8.576 0v8.155s-3.063 4.747-8.576 0" fill="#696557"/><path d="M14.7023 41.9724v26.583s7.561 13.575 28.589 6.558l.124-30.907-27.565-2.234" fill="#D0CDC7"/><path d="M54.523 68.3471s6.12-1.859 3.057 3.96c0 0-4.441 5.82-6.355 5.82 0 0-6.815 1.225-5.437-5.82 0 0 .709-1.969-1.33-2.439 0 0-.277 7.135-14.711 7.161 0 0-13.974-8.55 5.781-20.189 0 0 17.01-9.298 18.995 11.507" fill="#E1E0DD"/><path d="M27.6994 81.5992s6.954-.69.154-2.758l-1.764-8.458 1.432-25.61s-10.675-5.199-12.819 2.964l5.901 28.858.27 9.031s5.206 3.24 6.6.02l.226-4.047z" fill="#6F6B5C"/></g></svg>