<svg width="370" height="199" viewBox="0 0 370 199" xmlns="http://www.w3.org/2000/svg" xmlns:xlink="http://www.w3.org/1999/xlink"><title>Page 1</title><defs><path id="a" d="M0 .87519388h369.951874V199H0V.87519388z"/><path id="c" d="M0 .87519388h369.951874V199H0"/></defs><g fill="none" fill-rule="evenodd"><mask id="b" fill="#fff"><use xlink:href="#a"/></mask><path d="M204.442287 51.7942173S54.8806311 31.8536051 52.3282322 101.38786c0 0-9.1878251 41.926051-25.5219617 41.926051H16.5966749S8.93947814 123.885013.26253825 128.998095c0 0-3.06328415 16.360643 11.74022405 18.917184h17.3559071s21.9477923-2.138235 35.2206721-49.3844902c0 0-9.1878251 60.1203372-17.3559071 72.9030412 0 0 1.5326558 21.983408 8.168082 26.586806 0 0 23.9913333 4.601367 18.3756503-6.13651l-5.6562295-8.691021s8.4559617-27.679275 34.1096998-47.839194c0 0 6.256317 8.981398 8.808715 48.350908l12.761995 15.294572h17.355907s6.124541-7.62698-4.085055-12.228347l-6.124541-8.851439s15.823252-48.545847 9.698711-53.847775c0 0 16.334136 17.637898 63.805918 11.282081 0 0-6.124541 45.282653-4.083027 56.0185l2.041513 7.62698h26.543732s6.635427-6.603551-2.552398-12.228347l-4.085055-3.577939s8.678967-32.211602 17.866792-41.414337c0 0 28.585246 48.998674 42.366984 57.220623h23.480448s7.146311-11.204919-4.083027-14.784888l-5.615683-1.021398s-23.991334-43.970877-22.458678-51.128786l-10.720481-78.7369894-58.70112-1.5331123z" fill="#EFB658" mask="url(#b)"/><mask id="d" fill="#fff"><use xlink:href="#c"/></mask><path d="M230.580757 51.9570724S255.85944 3.94324592 277.298375.87499082h50.871601s36.479639 18.56994898 41.424279 51.08208158c0 0 2.903125 34.8128164-32.828432 75.8433676h-8.595847l-28.054087 32.27049-18.987902-32.27049h-15.314394s-43.668524-61.5742553-35.232836-75.8433676" fill="#E9540D" mask="url(#d)"/><path d="M260.454164 24.2658163l-10.337317 9.9703061s-15.69553 1.1493266-13.01541-21.0899387c0 0 21.345678-12.27098982 32.877088 0l-9.524361 11.1196326zM346.291197 24.2658163l10.337317 9.9703061s15.69553 1.1493266 13.01541-21.0899387c0 0-21.345678-12.27098982-32.877087 0l9.52436 11.1196326zM286.104252 20.9689143h29.479296l21.183491 18.6349286s5.104798 7.2858367 0 18.0237142c0 0-14.600776 19.3009694-15.509016 37.1967551l-.032437.6416735s-15.979355 21.0940003-38.184618 3.5738776c0 0-2.68012-34.6869184-14.929202-35.5580511 0 0-8.040361-14.6752346 0-24.2617551l17.992486-18.2511428z" fill="#EFB658"/><path d="M288.401209 60.6943908h25.649683s5.36024 9.8505-10.718454 15.3392449c0 0-14.548065-1.1513571-14.931229-15.3392449" fill="#974515"/></g></svg>