<svg width="370" height="200" viewBox="0 0 370 200" xmlns="http://www.w3.org/2000/svg" xmlns:xlink="http://www.w3.org/1999/xlink"><title>Page 1</title><defs><path id="a" d="M0 .554h369.393V200H0V.554z"/></defs><g fill="none" fill-rule="evenodd"><mask id="b" fill="#fff"><use xlink:href="#a"/></mask><path d="M221.378 40.674S59.428 19.092 56.663 94.35c0 0-9.95 45.38-27.636 45.38H17.972S9.68 118.7.284 124.234c0 0-3.317 17.707 12.713 20.474H31.79s23.767-2.315 38.14-53.45c0 0-9.95 65.07-18.795 78.904 0 0 1.66 23.794 8.845 28.776 0 0 25.98 4.98 19.898-6.642l-6.125-9.406s9.157-29.96 36.936-51.778c0 0 6.773 9.72 9.537 52.33L134.047 200h18.793s6.632-8.256-4.424-13.236l-6.63-9.58s17.133-52.543 10.5-58.28c0 0 17.688 19.09 69.092 12.21 0 0-6.632 49.01-4.42 60.63l2.21 8.255h28.742s7.185-7.148-2.764-13.236l-4.423-3.872s9.398-34.864 19.347-44.825c0 0 30.953 53.033 45.877 61.932h25.425s7.738-12.128-4.42-16.003l-6.082-1.105s-25.98-47.592-24.32-55.34l-11.608-85.22-63.564-1.658z" fill="#EFB658" mask="url(#b)"/><path d="M340.18 31.378s17.723 13.17 14.96 17.044l.294 3.042s17.67 14.943 13.248 21.03c0 0-2.487 8.854-9.95 10.513 0 0-2.763 8.578-8.29 8.578l-14.208-5.938-14.258-47.84 18.205-6.43z" fill="#EFB658"/><path d="M261.313 135.855s31.507-28.222 19.483-54.37l-6.217 7.227-2.156-25.488-4.892 4.15s-2.46-25.56-9.088-25.733l-37.065-.966 34.13-12.727h-7.048s-8.29-4.15 21.558-8.3l-6.634-6.225h20.146l-2.736-5.396s10.78 3.734 14.926 3.734c0 0-11.61-10.79-9.536-11.204 0 0 61.353 10.375 53.48 32.786 0 0-11.61 4.565-3.318 14.94 0 0-4.56 17.847.827 25.318 0 0 2.49 34.033-29.017 51.463l-.415-8.714s-20.728 23.654-31.92 23.24l1.244-4.15-15.754.415z" fill="#E9540D"/></g></svg>